<svg id="Capa_1" enable-background="new 0 0 512 512" height="512" viewBox="0 0 512 512" width="512" xmlns="http://www.w3.org/2000/svg"><g><path d="m437.758 481-3.193-10.737c-6.27-21.152-35.215-28.418-58.477-34.263-26.162-6.519-53.145-13.257-58.828-34.731l-2.578-9.712-9.99-1.304c-14.268-1.846-28.096-7.28-40.049-15.703l-8.643-6.094-8.643 6.108c-35.035 24.652-85.521 19.415-114.932-10.444l-5.449-5.537-7.676 1.274c-53.009 8.669-103.3-33.183-103.3-88.857 0-23.906 9.551-46.479 26.865-63.589l5.537-5.449-1.26-7.676c-12.269-74.792 59.895-96.713 62.9-99.272 2.278-3 17.952-64.014 85.958-64.014 18.369 0 36.123 5.684 51.328 16.45l8.672 6.109 8.672-6.123c15.205-10.752 32.959-16.436 51.328-16.436 37.383 0 70.195 22.661 83.555 57.744l2.402 6.27 6.299 2.388c41.023 15.696 63.185 57.087 56.602 96.841l-1.26 7.72 5.508 5.449c17.343 17.109 26.894 39.682 26.894 63.588 0 37.529-23.701 71.484-58.975 84.507l-24.668 9.097 20.361 16.597c21.153 17.211 33.282 42.655 33.282 69.799v30z" fill="#ffb3b3"/><path d="m264.643 374.55c11.953 8.423 25.781 13.857 40.049 15.703l9.99 1.304 2.578 9.712c5.684 21.475 32.666 28.213 58.828 34.731 23.262 5.845 52.207 13.11 58.477 34.263l3.193 10.737h28.242v-30c0-27.144-12.129-52.588-33.281-69.8l-20.361-16.597 24.668-9.097c35.273-13.022 58.974-46.977 58.974-84.506 0-23.906-9.551-46.479-26.895-63.589l-5.508-5.449 1.26-7.72c6.583-39.754-15.579-81.145-56.602-96.841l-6.299-2.388-2.402-6.27c-13.359-35.082-46.171-57.743-83.554-57.743-18.369 0-36.123 5.684-51.328 16.436l-8.672 6.123v314.897z" fill="#ff8080"/><path d="m512 271c0-27.935-12.338-54.536-32.348-74.268 7.845-47.325-18.876-95.32-66.064-113.335-15.498-40.634-53.789-67.397-97.588-67.397-21.445 0-42.363 6.738-60 19.189-17.637-12.451-38.555-19.189-60-19.189-43.799 0-82.09 26.763-97.588 67.397-47.125 17.991-73.92 65.947-66.064 113.335-20.01 19.732-32.348 46.333-32.348 74.268 0 64.665 59.498 113.969 121.732 103.652 34.834 35.376 93.633 40.825 134.268 12.158 13.975 9.858 30 16.143 46.758 18.325 7.969 30 41.777 38.452 69.609 45.41 33.047 8.277 48.633 13.976 48.633 30.455v15h60v-45c0-32.813-15.146-62.168-38.789-81.431 40.107-14.795 69.789-53.393 69.789-98.569zm-106 75h-30v30c41.367 0 75 33.647 75 75v15h-1.992c-8.379-29.312-41.807-37.661-69.375-44.546-33.047-8.276-48.633-13.975-48.633-30.454v-15h-15c-16.221 0-31.891-5.742-45-15.78v-30.639c13.868-2.314 27.301-7.804 38.994-16.584l12.012-8.994-18.018-24.009-11.982 9.009c-21.211 15.879-50.801 15.879-72.012 0l-11.982-9.009-18.018 24.009 12.012 8.994c11.691 8.78 25.126 14.269 38.994 16.584v30.498c-30.961 23.351-77.261 18.755-102.363-11.413l-5.977-7.192-9.082 2.197c-49.201 11.808-92.578-25.909-92.578-72.671 0-22.017 9.961-42.935 27.334-57.363l.079-.066c10.671-8.857 22.48-14.427 35.078-16.531l-4.98-29.59c-9.307 1.558-18.422 4.598-27.127 8.828 1.959-31.049 22.674-57.546 53.143-66.703l7.734-2.329 2.314-7.72c9.638-32.022 38.32-53.526 71.425-53.526 16.221 0 31.891 5.742 45 15.78v44.22h30v-44.22c13.109-10.038 28.779-15.78 45-15.78 24.161 0 45.872 11.541 59.639 30.178-12.083-.11-23.43 1.859-34.649 5.814l10.02 28.271c14.004-4.966 27.656-6.357 46.465-.688 30.469 9.157 51.183 35.654 53.143 66.703-8.705-4.23-17.82-7.269-27.127-8.828l-4.98 29.59c32.059 5.354 62.489 35.186 62.489 73.96 0 41.353-33.633 75-75 75z" fill="#fcc"/><g><path d="m271 106v-44.22c13.109-10.038 28.779-15.78 45-15.78 24.161 0 45.872 11.541 59.639 30.178-12.083-.11-23.43 1.859-34.649 5.814l10.02 28.271c14.004-4.966 27.656-6.357 46.465-.688 30.469 9.157 51.183 35.654 53.143 66.703-8.705-4.23-17.82-7.269-27.127-8.828l-4.98 29.59c32.059 5.354 62.489 35.186 62.489 73.96 0 41.353-33.633 75-75 75h-30v30c41.367 0 75 33.647 75 75v15h-1.992c-8.379-29.312-41.807-37.661-69.375-44.546-33.047-8.276-48.633-13.975-48.633-30.454v-15h-15c-16.221 0-31.891-5.742-45-15.78v-30.639c13.868-2.314 27.301-7.804 38.994-16.584l12.012-8.994-18.018-24.009-11.982 9.009c-10.606 7.939-23.306 11.909-36.006 11.909v85.898c13.975 9.858 30 16.143 46.758 18.325 7.969 30 41.777 38.452 69.609 45.41 33.047 8.277 48.633 13.976 48.633 30.455v15h60v-45c0-32.813-15.146-62.168-38.789-81.431 40.107-14.795 69.789-53.393 69.789-98.569 0-27.935-12.338-54.536-32.348-74.268 7.846-47.325-18.876-95.321-66.064-113.335-15.498-40.634-53.789-67.397-97.588-67.397-21.445 0-42.363 6.738-60 19.189v70.811z" fill="#ffb3b3"/></g><g><path d="m91 256v-15h-30v15c0 33.091 26.924 60 60 60h45v-30h-45c-16.553 0-30-13.462-30-30z" fill="#fcc"/><path d="m426.684 249.247c-10.576 10.562-17.578 23.716-20.479 38.042h-46.494v30h75v-15c0-12.026 4.688-23.32 13.184-31.802l10.605-10.605-21.211-21.226z" fill="#ffb3b3"/><path d="m196 196c-33.076 0-60 26.909-60 60h30c0-16.538 13.447-30 30-30s30 13.462 30 30h30c0-33.091-26.924-60-60-60z" fill="#fcc"/><path d="m316 196c-33.076 0-60 26.909-60 60h30c0-16.538 13.447-30 30-30s30 13.462 30 30h30c0-33.091-26.924-60-60-60z" fill="#ffb3b3"/><path d="m165.883 150.883-.117 15.117h75.234v-30h-46.318c-2.344-14.033-8.057-27.51-16.67-38.994l-8.994-12.012-24.023 18.003 8.994 11.997c7.88 10.503 11.982 22.91 11.894 35.889z" fill="#fcc"/><path d="m369.994 147.997-17.988-23.994c-21.211 15.879-50.801 15.879-72.012 0l-17.988 23.994c15.879 11.924 34.951 17.886 53.994 17.886s38.115-5.962 53.994-17.886z" fill="#ffb3b3"/></g></g></svg>