<?xml version="1.0" encoding="utf-8"?>
<!-- Generator: Adobe Illustrator 19.2.1, SVG Export Plug-In . SVG Version: 6.00 Build 0)  -->
<svg version="1.1" id="layer" xmlns="http://www.w3.org/2000/svg" xmlns:xlink="http://www.w3.org/1999/xlink" x="0px" y="0px"
	 viewBox="0 0 652 652" style="enable-background:new 0 0 652 652;" xml:space="preserve">
<style type="text/css">
	.st0{fill-rule:evenodd;clip-rule:evenodd;fill:#231815;}
	.st1{fill:#231815;}
</style>
<path class="st0" d="M464.4,243l-0.5-1.2l-0.8-0.9l-1.1-0.6l-1.2-0.3l-1.6,0.2l-1.7,0.5l-1.9,0.9l-1.9,1.6l-1.1,0.9l-0.9,1.1
	l-0.8,0.9l-0.8,0.6l-0.8,0.5h-0.8l-0.9-0.5l-0.9-1.1l-0.2-1.4l0.3-2.2l0.8-2.5l1.1-2.8l1.4-2.8l1.6-2.7l1.6-2.2l1.6-1.7l-0.2-0.2
	l-0.2-0.5l-0.5-0.6l-0.5-0.8l-0.6-0.9l-0.6-0.8l-0.5-0.9l-0.5-0.6l-10.1,2.5V224v-0.6v-0.5v-0.3l-9,1.9l-0.3,2l-0.3,2.2l-0.3,2.3
	l-0.5,2.3l-0.5,2.3l-0.5,2.3l-0.5,2.3l-0.5,2.3l-0.6,2.2l-0.6,1.9l-0.6,1.9l-0.6,1.7l-0.8,1.4l-0.8,1.1l-0.8,0.8l-0.8,0.5h-0.6
	l-0.3-0.5l-0.2-0.8v-1.3l0.2-1.2l0.2-1.7l0.5-1.7l0.3-2l0.6-2l0.5-2.2l0.5-2.2l0.6-2.2l0.5-2l0.5-2l0.3-2l0.3-1.7l-10.9,2.3l0.5,1.4
	l0.3,1.1l-0.2,0.8l-0.3,0.9l-1.7-0.9l-2-0.6l-2.3,0.2l-2.3,0.6l-2.5,1.6l-2.7,2.5l-2.5,3.4l-2.5,4.5l-0.8,1.7l-0.6,1.7l-0.3,1.9
	l-0.3,1.7L396,255l-0.2,1.9v1.9l-0.2,1.9l-2.7,2.3l-2.2,1.4l-2,0.5H387l-1.7-0.6l-1.6-1.1l-1.4-1.4l-1.4-1.4l2.5-1.6l2.3-1.9l2.2-2
	l1.9-2.2l1.4-2.3l1.2-2.5l0.6-2.5l0.3-2.7l-0.5-1.7l-1.1-1.2l-1.7-0.9l-2-0.3h-2l-2.2,0.3l-2.2,0.8l-1.7,1.1l1.1-2.2l1.2-2.2
	l0.9-2.2l0.9-2.2l0.8-2.2l0.6-2.2l0.3-2.2l0.2-2.2v-1.6v-2l-0.2-2.3l-0.2-2.2l-0.6-2.2l-0.8-1.7l-1.2-1.4l-1.6-0.6l-1.2,0.3
	l-1.2,1.4l-1.1,2l-1.2,2.7l-1.1,3.3l-1.1,3.7l-1.1,3.9l-0.9,4.1l-0.9,4.1l-0.8,4.1l-0.8,3.7l-0.6,3.3l-0.5,2.8l-0.3,2.2l-0.3,1.4
	v0.5l-5.8,3v-1.7l0.2-1.9l0.5-1.7l0.6-1.7l0.8-1.7l1.1-1.4l1.1-1.1l1.4-0.9l-9.3-0.2l-1.2,1.6l-0.8,2l-0.9,2.5l-1.1,2.5l-1.6,2.8
	l-2.2,2.5l-3.3,2.2l-4.5,1.7L343,260l-0.5-0.8l-0.6-0.8l-0.6-0.8l-0.8-0.6l-0.8-0.5l-0.9-0.3l-0.9-0.2l-2.7,0.9l-1.9,1.6l-1.1,1.9
	l-0.3,2.2l0.3,2l0.9,1.9l1.7,1.6l2,0.8l0.2,1.4l-0.3,1.6l-0.6,1.6l-0.9,1.4l-0.9,1.2l-1.1,0.8l-1.2,0.5H331l-1.4-1.6l-0.9-2
	l-0.5-2.5v-2.8l0.5-2.7l0.6-2.5l1.1-2.3l1.4-1.7l1.1-1.1l0.3-1.2l-0.6-0.6l-1.4-0.2l-2.3,0.9l-2.3,1.7l-1.9,2.3L323,264l-1.6,3.1
	l-0.9,3.3l-0.6,3.3l-0.2,3.1l-2.7,2.8l-2.2,1.6l-1.7,0.6l-1.6-0.5l-1.1-1.1l-0.8-1.4l-0.6-1.7l-0.5-1.9l0.8-1.2l0.8-1.9l0.9-2.2
	l0.9-2.5l0.9-2.8l0.9-3l0.9-3.3l0.9-3.3l0.6-3.3l0.6-3.3l0.5-3.1l0.2-3.1v-2.7l-0.3-2.7l-0.5-2.2l-0.9-1.7l-0.6-0.6l-0.9-0.3
	l-0.9,0.2l-0.6,0.5L311,235l-1.6,2.7l-1.6,2.7l-1.2,2.8l-1.1,2.8l-0.8,3l-0.8,3.1l-0.6,3l-0.6,3.1l-0.3,3.1l-0.3,3.1l-0.3,3v3.1
	l-0.2,3v2.8v2.8l-0.6,1.2l-0.8,1.4l-1.1,1.4l-1.1,1.4l-1.2,1.2l-1.4,0.9l-1.2,0.6l-1.2,0.3l-0.9-0.5l-0.3-1.2l0.3-1.9l0.6-2.3
	l0.9-2.2l0.9-2.2l1.1-1.7l1.1-1.1l-3.1-7.2l-8.7,1.9l0.2-1.6l-10.4,1.6l0.2,1.6v1.7l-0.2,2.2l-0.2,2.2l-0.3,2.3l-0.3,2.3l-0.5,2.5
	l-0.5,2.3l-0.5,2.3l-0.6,2.2l-0.6,2l-0.8,1.7l-0.8,1.4l-0.9,1.1l-0.8,0.6l-0.9,0.3l-0.5-0.2l-0.2-0.3l-0.3-0.5v-0.8v-1.1v-1.1
	l0.2-1.4l0.3-1.6l0.2-1.9l0.3-1.9l0.3-2.2l0.5-2.2l0.3-2.5l0.3-2.7l0.5-2.7l0.3-3l-12.4,3.7l1.9,2.2l-2.3,19.4l-0.5,0.8l-0.5,0.8
	l-0.6,0.6l-0.8,0.5l-0.8,0.5l-0.9,0.5l-1.1,0.3l-1.1,0.2h-1.9l-1.7-0.5l-1.6-1.1l-1.4-1.4l-1.2-1.7l-1.1-1.9l-0.9-2.2l-0.9-2.2
	l-0.9-2.3l-0.9-2.3l-0.8-2.2l-0.8-1.9l-0.9-1.9l-0.9-1.4l-0.9-1.1l-0.9-0.6l1.6-1.6l1.7-1.7l1.6-1.9l1.6-1.9l1.7-2l1.6-2l1.6-2
	l1.7-2.2l1.6-2.2l1.6-2l1.6-2.2l1.6-2l1.6-2l1.6-2l1.4-1.9l1.6-1.7l3.3-3l3.1-2.5l2.8-2.2l2.6-1.9l2.5-1.4l2.2-1.2l2-0.8l1.7-0.6
	l1.6-0.2h1.4l1.2,0.2l0.9,0.5l0.8,0.6l0.6,0.9l0.3,0.9l0.2,1.2l0.5,2l1.1,0.9l1.6,0.2l1.7-0.6l1.7-0.9l1.4-1.2l1.2-1.4l0.6-1.2
	l0.6-4.5l-0.9-3.8l-1.9-3l-2.8-2.2l-3.3-1.6l-3.7-0.6h-3.7l-3.4,0.8l-5.7,2.7l-5.1,3.3l-4.7,3.7l-4.1,4.1l-3.7,4.5l-3.3,4.7
	l-3.1,4.7l-3,4.8l-2.8,4.5l-2.8,4.5l-2.7,4.1l-3,3.6l-2.9,3.1l-3.4,2.5l-3.6,1.7l-4.1,0.9l5.9-37.7h-6.2l-1.6,2l-1.7,1.9l-2.2,1.7
	l-2.2,1.4l-2.5,0.9l-2.5,0.3l-2.6-0.3l-2.7-1.1l-4.1,18.4l2.5-0.2l2.5-0.6l2.5-0.8l2.3-1.1l2.3-1.4l2.2-1.4l2-1.6l1.9-1.7l-0.8,3.4
	l-0.6,3.8l-0.6,4.2l-0.8,4.2l-0.6,4.5l-0.8,4.5l-0.9,4.5l-0.9,4.4l-1.2,4.2l-1.6,3.9l-1.6,3.6l-2,3.1l-2.3,2.7l-2.7,2.2l-3.1,1.4
	l-3.4,0.6l-4.7,17.6V71.7h279.7V243z M259.7,268.6l1.1-9.2l9.5-1.9l-1.2,9.2L259.7,268.6z M376.5,239.9l1.1-6.6l1.2-4.5l0.9-2.5
	l0.8-0.5l0.2,1.1l-0.5,2.8l-1.4,4.4L376.5,239.9z M405.7,253.6l-1.2-0.9l-0.3-1.6l0.2-2l0.8-2.2l1.1-2l1.4-1.6l1.6-0.9l1.6,0.2
	l0.5,0.9l-0.3,0.9l-0.3,0.8l0.9,0.6l1.2,0.3l0.9-0.2l0.8-0.3l0.6-0.5l-0.5,1.4l-0.6,1.6l-0.9,1.6l-1.2,1.6l-1.2,1.1l-1.6,0.9
	l-1.6,0.5L405.7,253.6z M379.1,254.7v-1.1l-0.2-0.8l-0.3-0.3l-0.5,0.2l-0.8,0.2l-0.9,0.5l-1.2,0.6l-1.4,0.5l0.6-0.8l0.8-0.8l1.1-0.9
	l1.2-0.8l1.2-0.5l1.1-0.3h1.1l0.8,0.6v0.9l-0.3,1.2l-0.9,1.1L379.1,254.7z M338.5,263.5l-0.8-0.2l-0.3-0.6v-0.6l0.6-0.3l0.8,0.2
	l0.3,0.5L339,263L338.5,263.5z M307.7,266.8v-2.2l0.3-2.5l0.2-2.8l0.5-2.7l0.3-2.5l0.5-2.2l0.5-1.6l0.5-0.9l0.3,0.5v1.9l-0.5,2.7
	l-0.5,3.1l-0.8,3.3l-0.6,3l-0.5,2L307.7,266.8z"/>
<polygon class="st0" points="184.6,440.6 184.6,333.9 188.8,332.7 192.5,331.4 195.8,329.8 198.6,328.1 201.2,326.1 203.4,323.9 
	205.4,321.6 207.1,318.8 208.7,315.8 209.9,312.4 211.2,308.6 212.4,304.6 213.5,300.2 214.6,295.2 215.7,289.9 216.8,284.1 
	218.3,284.1 219.7,283.9 221.1,283.6 222.4,283.2 223.6,282.7 224.9,282.2 225.9,281.6 227,280.8 228,282.2 228.7,283.6 
	229.5,285.2 230.1,286.7 230.6,288.3 231.1,290 231.4,291.7 231.8,293.6 232.2,295.3 232.5,297.1 232.9,298.9 233.2,300.7 
	233.7,302.4 234.3,303.9 235,305.5 235.7,307.1 237.9,311 240.4,313.5 243.2,314.7 246.2,314.9 249.3,314.1 252.4,312.4 255.3,310 
	258,307.1 259.2,308.6 260.8,309.4 262.6,309.7 264.3,309.2 266.2,308.6 267.9,307.7 269.5,306.6 270.7,305.5 271.8,304.1 
	272.9,302.7 274,301.1 275.1,299.4 276,297.7 276.9,295.8 277.9,293.9 278.8,291.9 279.6,289.9 280.4,288 281,286 281.6,283.9 
	282.2,282.1 282.7,280.2 283,278.3 283.3,276.6 283.9,276.4 284.5,276.3 285,276.1 285.6,276 286.3,275.8 286.9,275.7 287.5,275.5 
	288.1,275.3 287,277 286.1,279.1 285.2,281.3 284.2,283.8 283.6,286.1 283,288.6 282.5,291.1 282.2,293.5 282.2,295.7 282.4,297.5 
	282.8,299.3 283.6,300.5 284.7,301.4 286.1,301.9 288,301.9 290.2,301.3 292,300.2 293.9,298.8 295.5,297.4 297,295.7 298.4,294.1 
	299.8,292.2 301.2,290.5 302.7,288.8 304.5,293 306.8,295 309.4,295.3 312.2,294.3 315,292.2 317.5,289.6 319.7,286.7 321.3,284.1 
	321.9,285.5 322.5,286.7 323.4,287.7 324.4,288.5 325.4,289.1 326.7,289.6 327.9,289.7 329.2,289.7 332.3,288.8 335.1,287.2 
	337.4,285.2 339.4,282.4 341,279.1 342.2,275.3 343,271.1 343.5,266.4 344.6,266 345.8,265.6 346.9,265.2 348.2,264.7 349.4,264.2 
	350.8,263.6 352,263 353.3,262.4 353.3,263.8 353.4,265.3 353.4,266.9 353.4,268.5 353.3,270 352.8,271.4 352.3,272.5 351.4,273.5 
	350.2,274.1 349.6,273.9 349.4,273.5 349.4,272.5 349.4,271.4 349.2,270.3 348.6,269.4 347.4,268.9 346.3,269.2 345.4,270.2 
	344.6,271.4 344,273.1 343.5,275 343.3,276.7 343.5,278.3 344,279.6 344.6,280.5 345.5,281.1 346.4,281.7 347.7,282.4 348.9,282.7 
	350.2,282.8 351.4,283 352.7,282.8 356.1,281.6 358.7,279.7 360.7,277 362.1,274.1 363.1,270.8 363.5,267.4 363.5,263.9 
	363.1,260.7 367.1,259.3 366.8,261.9 366.5,264.4 366.2,267.1 365.9,269.4 365.6,271.9 365.4,274.2 365.3,276.7 365.1,279.1 
	374.9,275.2 374.7,274.6 374.4,273.9 374.1,273.1 373.8,272.2 373.6,271.3 373.5,270.5 373.5,269.7 373.6,269.1 376,271.1 
	378.9,272.4 382.2,273 385.6,272.8 389,272.1 392.2,270.7 395,268.6 397.1,266 398.7,267.4 400.5,268.5 402.6,268.9 404.9,268.9 
	407.4,268.3 409.9,267.2 412.5,265.3 415,262.8 416,263.8 416.9,264.6 417.8,265 418.7,265.3 419.5,265.5 420.5,265.3 421.4,265.2 
	422.3,264.7 423.6,263.9 424.6,263 425.7,261.7 427,260.3 427.9,258.8 429,257.1 430.1,255.2 431,253.2 431.8,251.1 432.7,249 
	433.5,246.6 434.3,244.1 434.9,241.6 435.5,239.1 436,236.5 436.5,233.8 442.4,232.4 441,235.5 439.6,238.8 438.5,242.1 
	437.6,245.4 436.9,248.5 436.8,251.3 437.1,253.6 438,255.7 440.2,257.4 442.9,258.2 445.5,258 448.3,257.2 450.8,255.8 
	452.9,253.9 454.6,251.9 455.7,249.7 456.4,248.5 457.1,247.2 458.1,246.5 459,246.3 460.1,246.8 460.7,247.7 460.6,248.8 
	459.9,250.2 458.7,251.9 457.1,253.6 455.1,255.4 452.8,257.2 450.5,258.6 448,260 445.2,261.6 442.2,263 439.1,264.4 436,265.6 
	432.9,266.9 429.9,268 225.5,337.7 213.3,370.5 429.6,277 433,275.5 436.5,273.9 439.4,272.4 442.4,270.8 445,269.2 447.7,267.8 
	450,266.3 452.2,264.7 454.2,263.3 456,261.7 457.8,260.2 459.5,258.6 460.9,256.9 462.1,255.2 463.4,253.5 464.5,251.6 
	464.5,440.6 "/>
<path class="st1" d="M50.3,500.5v22.1h12.3c3.2,0,5.3-0.5,6.4-1.4c1.4-1.3,2.2-3.5,2.4-6.7H73V534h-1.5c-0.4-2.7-0.8-4.5-1.2-5.3
	c-0.5-1-1.3-1.7-2.4-2.3c-1.1-0.6-2.8-0.9-5.2-0.9H50.3v18.5c0,2.5,0.1,4,0.3,4.5c0.2,0.5,0.6,0.9,1.1,1.3c0.6,0.3,1.6,0.5,3.2,0.5
	h9.5c3.1,0,5.4-0.2,6.9-0.6c1.4-0.5,2.8-1.3,4.1-2.6c1.7-1.7,3.4-4.3,5.2-7.7h1.7l-4.8,14H34.4v-1.5h2c1.3,0,2.6-0.3,3.8-0.9
	c0.9-0.5,1.5-1.1,1.8-2c0.3-0.9,0.5-2.7,0.5-5.4v-36.4c0-3.6-0.4-5.7-1.1-6.6c-1-1.1-2.6-1.6-5-1.6h-2v-1.5h43.2l0.6,12.3h-1.6
	c-0.6-3-1.2-5-1.9-6.1c-0.7-1.1-1.7-2-3.1-2.6c-1.1-0.4-3-0.6-5.8-0.6H50.3z"/>
<path class="st1" d="M100,522.4c4.4-5.3,8.6-7.9,12.6-7.9c2,0,3.8,0.5,5.3,1.6c1.5,1,2.7,2.7,3.5,5.1c0.6,1.6,0.9,4.2,0.9,7.6v16.2
	c0,2.4,0.2,4,0.6,4.8c0.3,0.7,0.8,1.2,1.5,1.6c0.7,0.4,1.9,0.6,3.7,0.6v1.5h-18.6v-1.5h0.8c1.7,0,3-0.3,3.7-0.8
	c0.7-0.5,1.2-1.3,1.5-2.3c0.1-0.4,0.2-1.7,0.2-3.9v-15.6c0-3.4-0.4-6-1.3-7.5c-0.9-1.6-2.4-2.3-4.5-2.3c-3.3,0-6.5,1.8-9.7,5.4v20
	c0,2.6,0.2,4.1,0.5,4.7c0.4,0.8,0.9,1.4,1.6,1.7s2,0.5,4.1,0.5v1.5H87.5v-1.5h0.9c1.9,0,3.2-0.5,3.9-1.5c0.7-0.9,1-2.8,1-5.5v-14
	c0-4.5-0.1-7.3-0.3-8.3c-0.2-1-0.5-1.7-0.9-2c-0.4-0.3-1-0.5-1.7-0.5c-0.8,0-1.7,0.2-2.8,0.6l-0.6-1.5l11.4-4.6h1.8V522.4z"/>
<path class="st1" d="M144.5,514.5v8.5c3.1-5.7,6.4-8.5,9.7-8.5c1.5,0,2.7,0.5,3.7,1.4c1,0.9,1.5,2,1.5,3.2c0,1.1-0.3,2-1,2.8
	c-0.7,0.7-1.6,1.1-2.6,1.1c-0.9,0-2-0.5-3.2-1.4c-1.2-0.9-2.1-1.4-2.7-1.4c-0.5,0-1,0.3-1.6,0.8c-1.2,1.1-2.5,3-3.8,5.6v18.1
	c0,2.1,0.3,3.7,0.8,4.8c0.4,0.7,1,1.3,1.9,1.8c0.9,0.5,2.2,0.7,3.9,0.7v1.5h-19.3v-1.5c1.9,0,3.3-0.3,4.3-0.9
	c0.7-0.5,1.2-1.2,1.4-2.1c0.1-0.5,0.2-1.8,0.2-4v-14.6c0-4.4-0.1-7-0.2-7.8c-0.2-0.8-0.5-1.5-1-1.8c-0.5-0.4-1.1-0.6-1.8-0.6
	c-0.9,0-1.8,0.2-2.9,0.6l-0.4-1.5l11.4-4.6H144.5z"/>
<path class="st1" d="M176.6,514.5v30.4c0,2.3,0.2,3.9,0.5,4.7c0.4,0.8,0.9,1.3,1.5,1.7c0.7,0.4,1.9,0.6,3.7,0.6v1.5h-18.3v-1.5
	c1.8,0,3.1-0.2,3.7-0.5c0.6-0.3,1.1-0.9,1.5-1.8c0.4-0.8,0.6-2.4,0.6-4.7v-14.6c0-4.1-0.1-6.7-0.4-7.9c-0.2-0.9-0.5-1.5-0.9-1.8
	c-0.4-0.4-1-0.5-1.7-0.5c-0.8,0-1.7,0.2-2.8,0.6l-0.6-1.5l11.4-4.6H176.6z M173.3,494.7c1.1,0,2.1,0.4,2.9,1.2
	c0.8,0.8,1.2,1.8,1.2,3c0,1.2-0.4,2.2-1.2,3c-0.8,0.8-1.8,1.2-2.9,1.2c-1.2,0-2.2-0.4-3-1.2c-0.8-0.8-1.2-1.8-1.2-3
	c0-1.1,0.4-2.1,1.2-3C171.1,495.1,172.1,494.7,173.3,494.7"/>
<path class="st1" d="M221.3,539.1c-1,5-3,8.8-6,11.5c-3,2.7-6.2,4-9.9,4c-4.3,0-8-1.8-11.2-5.4c-3.2-3.6-4.8-8.4-4.8-14.6
	c0-5.9,1.7-10.8,5.3-14.5c3.5-3.7,7.8-5.5,12.7-5.5c3.7,0,6.8,1,9.1,3c2.4,2,3.6,4,3.6,6.1c0,1-0.3,1.9-1,2.5c-0.7,0.6-1.6,1-2.8,1
	c-1.6,0-2.8-0.5-3.6-1.6c-0.5-0.6-0.8-1.7-1-3.3c-0.2-1.6-0.7-2.9-1.6-3.7c-1-0.8-2.3-1.2-4-1.2c-2.7,0-5,1-6.6,3.1
	c-2.2,2.7-3.3,6.2-3.3,10.7c0,4.5,1.1,8.5,3.3,12c2.2,3.4,5.2,5.2,9,5.2c2.7,0,5.1-0.9,7.3-2.7c1.5-1.2,3-3.6,4.4-6.9L221.3,539.1z"
	/>
<path class="st1" d="M239.9,494.7v27.6c3.1-3.4,5.5-5.5,7.3-6.5c1.8-0.9,3.6-1.4,5.4-1.4c2.1,0,4,0.6,5.5,1.8c1.5,1.2,2.7,3,3.4,5.6
	c0.5,1.8,0.8,5,0.8,9.7v13.4c0,2.4,0.2,4,0.6,4.9c0.3,0.6,0.7,1.2,1.4,1.6c0.6,0.4,1.9,0.6,3.6,0.6v1.5h-18.5v-1.5h0.9
	c1.8,0,3-0.3,3.7-0.8c0.7-0.5,1.2-1.3,1.4-2.3c0.1-0.4,0.1-1.7,0.1-3.8v-13.4c0-4.1-0.2-6.9-0.6-8.1c-0.4-1.3-1.1-2.3-2-2.9
	c-0.9-0.6-2.1-1-3.4-1c-1.4,0-2.7,0.4-4.2,1.1c-1.5,0.7-3.2,2.2-5.3,4.4v20c0,2.6,0.2,4.2,0.4,4.8c0.3,0.6,0.8,1.2,1.6,1.6
	c0.8,0.4,2.1,0.6,4.1,0.6v1.5h-18.7v-1.5c1.7,0,3-0.2,4-0.8c0.5-0.3,1-0.8,1.3-1.6c0.3-0.8,0.5-2.3,0.5-4.7v-34.2
	c0-4.3-0.1-6.9-0.3-7.9c-0.2-1-0.5-1.7-0.9-2c-0.4-0.4-1-0.5-1.7-0.5c-0.6,0-1.5,0.2-2.8,0.7l-0.6-1.5l11.3-4.6H239.9z"/>
<path class="st1" d="M286.2,514.5v30.4c0,2.3,0.2,3.9,0.5,4.7c0.3,0.8,0.8,1.3,1.5,1.7c0.7,0.4,1.9,0.6,3.7,0.6v1.5h-18.3v-1.5
	c1.8,0,3.1-0.2,3.7-0.5c0.6-0.3,1.1-0.9,1.5-1.8c0.4-0.8,0.5-2.4,0.5-4.7v-14.6c0-4.1-0.1-6.7-0.4-7.9c-0.2-0.9-0.5-1.5-0.9-1.8
	c-0.4-0.4-1-0.5-1.7-0.5c-0.8,0-1.7,0.2-2.8,0.6l-0.6-1.5l11.4-4.6H286.2z M282.8,494.7c1.1,0,2.1,0.4,2.9,1.2
	c0.8,0.8,1.2,1.8,1.2,3c0,1.2-0.4,2.2-1.2,3c-0.8,0.8-1.8,1.2-2.9,1.2c-1.2,0-2.2-0.4-3-1.2c-0.8-0.8-1.2-1.8-1.2-3
	c0-1.1,0.4-2.1,1.2-3C280.6,495.1,281.6,494.7,282.8,494.7"/>
<path class="st1" d="M309.7,522.4c4.4-5.3,8.6-7.9,12.6-7.9c2,0,3.8,0.5,5.3,1.6c1.5,1,2.7,2.7,3.5,5.1c0.6,1.6,0.9,4.2,0.9,7.6
	v16.2c0,2.4,0.2,4,0.6,4.8c0.3,0.7,0.8,1.2,1.4,1.6c0.7,0.4,1.9,0.6,3.7,0.6v1.5h-18.7v-1.5h0.8c1.7,0,3-0.3,3.7-0.8
	c0.7-0.5,1.2-1.3,1.5-2.3c0.1-0.4,0.2-1.7,0.2-3.9v-15.6c0-3.4-0.5-6-1.3-7.5c-0.9-1.6-2.4-2.3-4.5-2.3c-3.3,0-6.5,1.8-9.7,5.4v20
	c0,2.6,0.2,4.1,0.5,4.7c0.4,0.8,0.9,1.4,1.6,1.7c0.7,0.4,2,0.5,4.1,0.5v1.5h-18.8v-1.5h0.8c1.9,0,3.2-0.5,3.9-1.5
	c0.7-0.9,1-2.8,1-5.5v-14c0-4.5-0.1-7.3-0.3-8.3c-0.2-1-0.5-1.7-0.9-2c-0.4-0.3-1-0.5-1.7-0.5c-0.8,0-1.7,0.2-2.8,0.6l-0.6-1.5
	l11.4-4.6h1.8V522.4z"/>
<path class="st1" d="M352.7,553.4c-1.3,1.4-2.3,2.7-2.9,3.9c-0.7,1.2-1,2.3-1,3.3c0,1.3,0.8,2.5,2.4,3.5c2.7,1.7,6.7,2.5,11.9,2.5
	c4.9,0,8.6-0.9,10.9-2.6c2.3-1.7,3.5-3.6,3.5-5.6c0-1.4-0.7-2.4-2.1-3c-1.4-0.6-4.2-0.9-8.5-1.1
	C360.8,554.2,356.1,553.9,352.7,553.4 M360.3,516.5c-2,0-3.7,0.8-5.1,2.4c-1.4,1.6-2.1,4.1-2.1,7.4c0,4.3,0.9,7.7,2.8,10.1
	c1.4,1.8,3.2,2.7,5.4,2.7c2.1,0,3.8-0.8,5.1-2.3c1.3-1.6,2-4,2-7.4c0-4.4-0.9-7.7-2.9-10.2C364.3,517.4,362.5,516.5,360.3,516.5
	 M353.1,539.6c-2.3-1.1-4.1-2.7-5.3-4.7c-1.2-2-1.9-4.2-1.9-6.7c0-3.7,1.4-6.9,4.2-9.6c2.8-2.7,6.4-4.1,10.8-4.1
	c3.6,0,6.7,0.9,9.4,2.6h8c1.2,0,1.9,0,2,0.1c0.2,0.1,0.3,0.2,0.4,0.4c0.2,0.2,0.2,0.7,0.2,1.3c0,0.7-0.1,1.2-0.2,1.5
	c-0.1,0.1-0.2,0.2-0.4,0.3c-0.2,0.1-0.9,0.1-2.1,0.1h-4.9c1.5,2,2.3,4.5,2.3,7.6c0,3.5-1.3,6.5-4,9c-2.7,2.5-6.3,3.7-10.8,3.7
	c-1.9,0-3.8-0.3-5.7-0.8c-1.2,1.1-2,2-2.4,2.8c-0.4,0.8-0.6,1.4-0.6,2c0,0.5,0.2,0.9,0.7,1.4c0.5,0.5,1.3,0.8,2.7,0.9
	c0.8,0.1,2.7,0.2,5.8,0.3c5.7,0.1,9.4,0.3,11,0.6c2.6,0.3,4.6,1.3,6.1,2.8c1.5,1.6,2.3,3.4,2.3,5.7c0,3.1-1.5,6-4.4,8.7
	c-4.3,4-9.9,6-16.8,6c-5.3,0-9.8-1.2-13.4-3.6c-2.1-1.4-3.1-2.8-3.1-4.3c0-0.7,0.2-1.3,0.4-2c0.5-1,1.4-2.4,2.9-4.3
	c0.2-0.2,1.6-1.7,4.2-4.4c-1.4-0.9-2.4-1.6-3-2.3c-0.6-0.7-0.9-1.5-0.9-2.3c0-1,0.4-2.1,1.2-3.4
	C348.5,543.8,350.3,541.9,353.1,539.6"/>
<path class="st1" d="M462.8,538l1.3,0.3l-4.8,15.1H416v-1.5h2.1c2.3,0,4.1-0.8,5.1-2.3c0.6-0.9,0.9-2.9,0.9-6.1v-36.2
	c0-3.5-0.4-5.7-1.2-6.6c-1.1-1.2-2.7-1.8-4.8-1.8H416v-1.5h25.3v1.5c-3,0-5.1,0.2-6.3,0.8c-1.2,0.5-2,1.3-2.4,2.2
	c-0.5,0.9-0.7,3-0.7,6.2v35.3c0,2.3,0.2,3.9,0.7,4.7c0.3,0.6,0.8,1,1.5,1.3c0.7,0.2,2.8,0.4,6.5,0.4h4.1c4.3,0,7.3-0.3,9-0.9
	c1.7-0.6,3.3-1.8,4.8-3.4C459.9,544,461.4,541.4,462.8,538"/>
<path class="st1" d="M483.7,514.5v30.4c0,2.3,0.2,3.9,0.5,4.7c0.3,0.8,0.8,1.3,1.5,1.7c0.7,0.4,1.9,0.6,3.7,0.6v1.5h-18.3v-1.5
	c1.8,0,3.1-0.2,3.7-0.5c0.6-0.3,1.1-0.9,1.5-1.8c0.4-0.8,0.5-2.4,0.5-4.7v-14.6c0-4.1-0.1-6.7-0.4-7.9c-0.2-0.9-0.5-1.5-0.9-1.8
	c-0.4-0.4-1-0.5-1.7-0.5c-0.8,0-1.7,0.2-2.8,0.6l-0.6-1.5l11.4-4.6H483.7z M480.3,494.7c1.1,0,2.1,0.4,2.9,1.2
	c0.8,0.8,1.2,1.8,1.2,3c0,1.2-0.4,2.2-1.2,3c-0.8,0.8-1.8,1.2-2.9,1.2c-1.2,0-2.2-0.4-3-1.2c-0.8-0.8-1.2-1.8-1.2-3
	c0-1.1,0.4-2.1,1.2-3C478.1,495.1,479.1,494.7,480.3,494.7"/>
<path class="st1" d="M494.3,515.6H512v1.5h-1.1c-1.1,0-1.9,0.3-2.5,0.8c-0.6,0.5-0.9,1.2-0.9,2.1c0,0.9,0.3,2.1,0.9,3.4l8.8,20.9
	l8.8-21.6c0.6-1.6,0.9-2.7,0.9-3.5c0-0.4-0.1-0.7-0.3-0.9c-0.3-0.4-0.7-0.7-1.2-0.9c-0.5-0.2-1.4-0.2-2.9-0.2v-1.5H535v1.5
	c-1.4,0.1-2.4,0.4-3,0.9c-1,0.9-1.8,2.3-2.6,4.2l-13.3,32.4h-1.8l-13.5-31.8c-0.6-1.5-1.2-2.6-1.7-3.2c-0.5-0.6-1.2-1.2-2.1-1.6
	c-0.5-0.2-1.4-0.5-2.7-0.7V515.6z"/>
<path class="st1" d="M546.9,527.5h17.5c-0.2-2.4-0.4-4.1-0.9-5.1c-0.7-1.6-1.7-2.7-3.1-3.6c-1.3-0.9-2.7-1.3-4.3-1.3
	c-2.3,0-4.3,0.9-6.1,2.7C548.2,521.9,547.2,524.3,546.9,527.5 M546.9,529.9c0,5.6,1.3,10,4.1,13.2c2.7,3.2,6,4.8,9.7,4.8
	c2.5,0,4.6-0.7,6.5-2c1.8-1.3,3.4-3.7,4.6-7l1.2,0.8c-0.5,3.8-2.2,7.3-5,10.4c-2.7,3.1-6.2,4.6-10.4,4.6c-4.5,0-8.4-1.8-11.6-5.3
	c-3.2-3.5-4.8-8.3-4.8-14.2c0-6.5,1.6-11.5,5-15.1c3.3-3.6,7.4-5.5,12.5-5.5c4.2,0,7.7,1.4,10.4,4.2c2.7,2.8,4.1,6.5,4.1,11.2H546.9
	z"/>
<path class="st1" d="M604.6,514.5v12.8h-1.3c-1.1-4-2.4-6.7-4-8.2c-1.6-1.5-3.7-2.2-6.2-2.2c-1.9,0-3.4,0.5-4.6,1.5
	c-1.2,1-1.7,2.2-1.7,3.4c0,1.5,0.4,2.9,1.3,4c0.8,1.1,2.6,2.3,5.2,3.6l6,2.9c5.6,2.7,8.3,6.3,8.3,10.8c0,3.4-1.3,6.2-3.9,8.3
	c-2.6,2.1-5.5,3.1-8.7,3.1c-2.3,0-4.9-0.4-7.9-1.2c-0.9-0.2-1.7-0.4-2.3-0.4c-0.6,0-1.1,0.3-1.5,1h-1.3v-13.5h1.3
	c0.8,3.9,2.3,6.8,4.4,8.7c2.2,2,4.6,2.9,7.3,2.9c1.9,0,3.4-0.5,4.6-1.7c1.2-1.1,1.8-2.5,1.8-4c0-1.9-0.7-3.5-2-4.8
	c-1.3-1.3-4-2.9-8-4.9s-6.6-3.7-7.8-5.4c-1.2-1.6-1.8-3.5-1.8-5.9c0-3.1,1.1-5.7,3.2-7.8c2.1-2.1,4.9-3.1,8.3-3.1
	c1.5,0,3.3,0.3,5.4,1c1.4,0.4,2.3,0.6,2.8,0.6s0.8-0.1,1-0.3c0.2-0.2,0.5-0.6,0.9-1.3H604.6z"/>
</svg>
